<?xml version="1.0" encoding="UTF-8"?>
<!DOCTYPE svg PUBLIC "-//W3C//DTD SVG 1.1//EN" "http://www.w3.org/Graphics/SVG/1.1/DTD/svg11.dtd">
<!-- Creator: CorelDRAW X7 -->
<svg xmlns="http://www.w3.org/2000/svg" xml:space="preserve" width="44px" height="44px" version="1.1" style="shape-rendering:geometricPrecision; text-rendering:geometricPrecision; image-rendering:optimizeQuality; fill-rule:evenodd; clip-rule:evenodd"
viewBox="0 0 44 44"
 xmlns:xlink="http://www.w3.org/1999/xlink">
 <defs>
  <style type="text/css">
   <![CDATA[
    .fil2 {fill:#373435}
    .fil3 {fill:#F8B330}
    .fil0 {fill:#36499A}
    .fil1 {fill:#36499A;fill-rule:nonzero}
    .fil4 {fill:#FEFEFE;fill-rule:nonzero;fill-opacity:0.250980}
   ]]>
  </style>
 </defs>
 <g id="Layer_x0020_1">
  <metadata id="CorelCorpID_0Corel-Layer"/>
  <g id="_283107072">
   <polygon class="fil0" points="10,25 34,8 34,7 9,24 "/>
   <path class="fil1" d="M6 0l32 0c2,0 3,1 4,2 1,1 2,2 2,4l0 32c0,2 -1,3 -2,4 -1,1 -2,2 -4,2l-32 0c-2,0 -3,-1 -4,-2 -1,-1 -2,-2 -2,-4l0 -32c0,-2 1,-3 2,-4 1,-1 2,-2 4,-2zm32 3l-32 0c-1,0 -1,1 -2,1 0,1 -1,1 -1,2l0 32c0,1 1,1 1,2 1,0 1,1 2,1l32 0c1,0 1,-1 2,-1 0,-1 1,-1 1,-2l0 -32c0,-1 -1,-1 -1,-2 -1,0 -1,-1 -2,-1z"/>
   <rect class="fil2" x="26" y="19" width="0.334904" height="17.0066"/>
   <polygon class="fil0" points="29,34 29,39 23,39 23,34 "/>
   <polygon class="fil0" points="29,28 29,33 23,33 23,28 "/>
   <rect class="fil2" x="34" y="14" width="0.334904" height="22.6757"/>
   <rect class="fil2" x="18" y="25" width="0.334904" height="11.3377"/>
   <rect class="fil2" x="10" y="31" width="0.334904" height="5.66889"/>
   <polygon class="fil0" points="7,28 13,28 13,33 7,33 "/>
   <polygon class="fil0" points="13,34 13,39 7,39 7,34 "/>
   <polygon class="fil3" points="21,34 21,39 15,39 15,34 "/>
   <polygon class="fil3" points="21,28 21,33 15,33 15,28 "/>
   <polygon class="fil0" points="29,23 29,28 23,28 23,23 "/>
   <polygon class="fil3" points="37,23 37,28 31,28 31,23 "/>
   <polygon class="fil3" points="37,17 37,22 31,22 31,17 "/>
   <polygon class="fil0" points="29,17 29,22 23,22 23,17 "/>
   <polygon class="fil3" points="37,11 37,16 31,16 31,11 "/>
   <polygon class="fil3" points="21,23 21,28 15,28 15,23 "/>
   <circle class="fil0" cx="34" cy="7" r="2"/>
   <polygon class="fil3" points="37,28 37,33 31,33 31,28 "/>
   <polygon class="fil3" points="37,34 37,39 31,39 31,34 "/>
   <circle class="fil3" cx="26" cy="13" r="2"/>
   <circle class="fil0" cx="18" cy="19" r="2"/>
   <circle class="fil3" cx="10" cy="24" r="2"/>
   <path class="fil4" d="M6 0l32 0c2,0 3,1 4,2 1,1 2,2 2,4l0 12c-6,0 -13,2 -21,4 -9,4 -17,8 -23,14l0 -30c0,-2 1,-3 2,-4 1,-1 2,-2 4,-2z"/>
  </g>
 </g>
</svg>
