<?xml version="1.0" encoding="UTF-8"?>
<!DOCTYPE svg PUBLIC "-//W3C//DTD SVG 1.1//EN" "http://www.w3.org/Graphics/SVG/1.1/DTD/svg11.dtd">
<!-- Creator: CorelDRAW X7 -->
<svg xmlns="http://www.w3.org/2000/svg" xml:space="preserve" width="72px" height="72px" version="1.1" style="shape-rendering:geometricPrecision; text-rendering:geometricPrecision; image-rendering:optimizeQuality; fill-rule:evenodd; clip-rule:evenodd"
viewBox="0 0 72 72"
 xmlns:xlink="http://www.w3.org/1999/xlink">
 <defs>
  <style type="text/css">
   <![CDATA[
    .fil2 {fill:#373435}
    .fil3 {fill:#F8B330}
    .fil0 {fill:#36499A}
    .fil1 {fill:#36499A;fill-rule:nonzero}
    .fil4 {fill:#FEFEFE;fill-rule:nonzero;fill-opacity:0.250980}
   ]]>
  </style>
 </defs>
 <g id="Layer_x0020_1">
  <metadata id="CorelCorpID_0Corel-Layer"/>
  <g id="_482297984">
   <polygon class="fil0" points="16,42 56,13 55,11 15,39 "/>
   <path class="fil1" d="M10 0l52 0c3,0 5,1 7,3 2,2 3,4 3,7l0 52c0,3 -1,5 -3,7 -2,2 -4,3 -7,3l-52 0c-3,0 -5,-1 -7,-3 -2,-2 -3,-4 -3,-7l0 -52c0,-3 1,-5 3,-7 2,-2 4,-3 7,-3zm52 5l-52 0c-1,0 -2,1 -3,2 -1,1 -2,2 -2,3l0 52c0,1 1,2 2,3 1,1 2,2 3,2l52 0c1,0 2,-1 3,-2 1,-1 2,-2 2,-3l0 -52c0,-1 -1,-2 -2,-3 -1,-1 -2,-2 -3,-2z"/>
   <rect class="fil2" x="42" y="32" width="0.548027" height="27.8291"/>
   <polygon class="fil0" points="47,55 47,64 38,64 38,55 "/>
   <polygon class="fil0" points="47,46 47,54 38,54 38,46 "/>
   <rect class="fil2" x="55" y="22" width="0.548027" height="37.1059"/>
   <rect class="fil2" x="29" y="41" width="0.548027" height="18.5527"/>
   <rect class="fil2" x="16" y="50" width="0.548027" height="9.27642"/>
   <polygon class="fil0" points="12,46 21,46 21,54 12,54 "/>
   <polygon class="fil0" points="21,55 21,64 12,64 12,55 "/>
   <polygon class="fil3" points="34,55 34,64 25,64 25,55 "/>
   <polygon class="fil3" points="34,46 34,54 25,54 25,46 "/>
   <polygon class="fil0" points="47,37 47,45 38,45 38,37 "/>
   <polygon class="fil3" points="60,37 60,45 51,45 51,37 "/>
   <polygon class="fil3" points="60,28 60,36 51,36 51,28 "/>
   <polygon class="fil0" points="47,28 47,36 38,36 38,28 "/>
   <polygon class="fil3" points="60,18 60,26 51,26 51,18 "/>
   <polygon class="fil3" points="34,37 34,45 25,45 25,37 "/>
   <circle class="fil0" cx="56" cy="12" r="3"/>
   <polygon class="fil3" points="60,46 60,54 51,54 51,46 "/>
   <polygon class="fil3" points="60,55 60,64 51,64 51,55 "/>
   <circle class="fil3" cx="43" cy="21" r="3"/>
   <circle class="fil0" cx="29" cy="30" r="3"/>
   <circle class="fil3" cx="16" cy="40" r="3"/>
   <path class="fil4" d="M10 0l52 0c3,0 5,1 7,3 2,2 3,4 3,7l0 20c-10,0 -22,2 -34,6 -16,6 -29,14 -38,23l0 -49c0,-3 1,-5 3,-7 2,-2 4,-3 7,-3z"/>
  </g>
 </g>
</svg>
